<svg width="126" height="56" viewBox="0 0 126 56" fill="none" xmlns="http://www.w3.org/2000/svg">
<path fill-rule="evenodd" clip-rule="evenodd" d="M58.0796 13.9309C63.9528 13.9309 64.1553 20.947 64.1622 25.8161C64.1687 30.4889 64.3678 38.0637 58.0846 38.0637C51.9157 38.0637 52.0212 30.1781 52.1255 25.7608C52.2293 21.3623 52.0206 13.9308 58.0796 13.9308V13.9309ZM58.1142 40.1718C66.4328 40.1456 70.7437 33.9828 70.743 25.7949C70.7422 17.8253 66.3473 11.9316 58.0823 11.9316C49.8174 11.9316 45.2788 17.3595 45.2793 25.7513C45.2799 34.1431 49.7955 40.198 58.1141 40.1719L58.1142 40.1718Z" fill="black"/>
<path fill-rule="evenodd" clip-rule="evenodd" d="M107.959 27.6668C107.963 27.1322 107.955 26.4957 107.955 25.7958C107.954 21.3994 108.24 14.4915 113.257 14.5203C114.767 14.5203 116.418 14.5375 117.378 16.0899C117.97 17.0472 118.359 18.0721 118.359 19.6219V32.7685C118.359 35.7874 116.248 37.3846 114.097 37.4534C113.044 37.4872 111.982 37.1547 111.152 36.4437C108.839 34.4614 107.96 30.9845 107.96 27.6668H107.959ZM101.092 24.7235C101.092 29.0656 101.494 32.4775 103.837 35.7134C104.654 36.8416 105.591 37.8165 106.86 38.5769C109.209 39.9837 110.426 40.0285 113.061 40.0285C115.18 40.0285 116.947 38.8136 118.359 38.0664C118.359 44.5191 119.698 53.1753 112.276 53.1753C110.676 53.1753 109.137 52 109.137 50.4281C109.137 49.2469 111.321 46.4468 109.087 44.0026C107.277 42.0221 102.832 42.2764 101.813 45.6562C100.297 50.6837 105.227 55.3335 111.492 55.3335C116.29 55.3335 118.771 55.1937 122.139 51.8535C124.026 49.9828 125.031 46.4872 125.031 42.7755V12.3618H118.359V13.9315C117.751 13.6097 117.67 13.4647 117.174 13.1543C110.669 9.08415 101.092 13.7678 101.092 24.7234L101.092 24.7235Z" fill="black"/>
<path fill-rule="evenodd" clip-rule="evenodd" d="M79.8598 27.6668C79.8631 27.1322 79.8557 26.4957 79.8555 25.7958C79.8547 21.3994 80.1405 14.4915 85.1577 14.5203C86.6674 14.5203 88.3183 14.5375 89.2783 16.0899C89.8702 17.0472 90.2593 18.0721 90.2593 19.6219V32.7685C90.2593 35.7874 88.1488 37.3846 85.9976 37.4534C84.9447 37.4872 83.882 37.1547 83.0523 36.4437C80.7391 34.4614 79.8599 30.9845 79.8599 27.6668H79.8598ZM72.9922 24.7235C72.9922 29.0656 73.3947 32.4775 75.7376 35.7134C76.5544 36.8416 77.4909 37.8166 78.7606 38.5769C81.1097 39.9837 82.3269 40.0285 84.9616 40.0285C87.0803 40.0285 88.8472 38.8136 90.2594 38.0664C90.2594 44.5191 91.5987 53.1753 84.1767 53.1753C82.5766 53.1753 81.0372 52 81.0372 50.4281C81.0372 49.2469 83.221 46.4468 80.9876 44.0026C79.1779 42.0221 74.732 42.2764 73.7132 45.6562C72.1977 50.6837 77.1275 55.3335 83.3919 55.3335C88.1908 55.3335 90.6715 55.1937 94.0397 51.8535C95.9262 49.9828 96.931 46.4872 96.931 42.7755V12.3618H90.2596V13.9315C89.6513 13.6097 89.5707 13.4647 89.0745 13.1543C82.5697 9.08415 72.9923 13.7678 72.9923 24.7234L72.9922 24.7235Z" fill="black"/>
<path fill-rule="evenodd" clip-rule="evenodd" d="M27.8633 2.15813C32.2418 2.15813 33.7854 1.35547 33.7525 7.06095L33.7499 29.4324C33.7499 33.8946 33.614 37.0754 38.5209 39.3777C40.3208 40.2222 42.7347 40.3396 44.7853 39.8793C47.6233 39.242 48.0811 38.3089 49.6741 37.2421L48.1093 35.5264C45.2956 37.4106 41.5757 37.4755 40.7296 33.8337C39.8251 29.9408 40.2251 5.34831 40.2251 0H27.8633V2.1585V2.15813Z" fill="black"/>
<path fill-rule="evenodd" clip-rule="evenodd" d="M12.1655 32.3757V21.5837C12.1655 17.2737 14.2976 13.4189 18.981 14.5694C22.601 15.4587 22.8178 20.2525 22.9577 23.1532C23.1067 26.2379 22.8691 28.5556 22.6209 31.6469C22.2132 33.7943 21.6211 35.3605 20.2636 36.5497C18.3857 38.1946 14.6055 38.0366 12.9532 35.3162C12.5536 34.6583 12.1654 33.4431 12.1654 32.3758L12.1655 32.3757ZM12.1655 14.52V12.5578H0V14.7162C1.19029 14.7162 3.50045 14.5685 4.29933 14.9299C5.27668 15.3721 5.69037 16.6138 5.69037 18.0518V55.7257H12.1656V37.6736C13.1495 38.1942 13.4593 38.7646 14.5408 39.2227C20.7238 41.842 27.3302 38.4494 29.239 31.2008C30.4748 26.5087 30.3174 20.4319 27.7106 16.242C25.0496 11.9648 19.3982 11.0136 14.935 12.7763C13.9851 13.1515 13.0051 13.9577 12.1656 14.5198L12.1655 14.52Z" fill="black"/>
<path d="M20.1187 45.8876C20.1187 45.8282 20.0989 45.744 20.0593 45.635H23.8041C23.7842 45.6944 23.7694 45.7464 23.7595 45.791C23.7496 45.8356 23.7446 45.8678 23.7446 45.8876C23.7446 45.9173 23.7496 45.9545 23.7595 45.9991C23.7694 46.0437 23.7842 46.0907 23.8041 46.1403C23.4672 46.1899 23.1949 46.279 22.9868 46.4078C22.7787 46.5365 22.5757 46.7347 22.3775 47.0023C22.2883 47.141 22.2065 47.2698 22.1322 47.3887C22.0579 47.5076 21.9886 47.6413 21.9242 47.7899C21.8599 47.9386 21.788 48.1193 21.7087 48.3324C21.6294 48.5453 21.5402 48.8054 21.4412 49.1125L19.2716 55.5917C19.0438 55.5619 18.8852 55.5471 18.796 55.5471C18.6871 55.5471 18.5285 55.5619 18.3204 55.5917L15.5861 47.5521C15.4871 47.2748 15.3955 47.0468 15.3112 46.8686C15.227 46.6903 15.1304 46.5491 15.0213 46.4451C14.9124 46.341 14.7811 46.2692 14.6275 46.2296C14.4739 46.19 14.2882 46.1603 14.0703 46.1404C14.0902 46.0908 14.105 46.0438 14.1149 45.9992C14.1248 45.9546 14.1298 45.9175 14.1298 45.8877C14.1298 45.8679 14.1248 45.8357 14.1149 45.7911C14.105 45.7466 14.0902 45.6945 14.0703 45.6351H18.0975C18.0579 45.744 18.0381 45.8283 18.0381 45.8877C18.0381 45.9671 18.0579 46.0512 18.0975 46.1404H17.7854C17.2901 46.1404 17.0424 46.3236 17.0424 46.6902C17.0424 46.8486 17.1019 47.0964 17.2208 47.4332L19.3606 53.7192L20.9359 48.949C21.1835 48.2159 21.3074 47.6859 21.3074 47.3589C21.3074 46.9725 21.2207 46.6729 21.0473 46.4599C20.874 46.247 20.6288 46.1404 20.3118 46.1404H20.0591C20.0989 46.0512 20.1186 45.9671 20.1186 45.8877L20.1187 45.8876ZM26.999 48.8003V53.4813C26.999 54.0459 27.0709 54.4423 27.2145 54.6701C27.3581 54.8979 27.6033 55.0119 27.95 55.0119C28.277 55.0119 28.5865 54.8757 28.8788 54.6033C29.171 54.3308 29.4311 53.9371 29.6589 53.422C29.7382 53.5013 29.8025 53.5507 29.8521 53.5706C29.9017 53.5904 29.9809 53.6102 30.0899 53.63C29.4657 54.9972 28.5692 55.6808 27.4001 55.6808C26.7463 55.6808 26.246 55.5174 25.8992 55.1904C25.5525 54.8634 25.3791 54.3928 25.3791 53.7786V50.3311C25.3791 49.9348 25.3196 49.6623 25.2007 49.5138C25.0818 49.3652 24.8739 49.2909 24.5766 49.2909H23.8783C23.908 49.1918 23.9228 49.1125 23.9228 49.0531C23.9228 49.0035 23.908 48.9193 23.8783 48.8004H26.9989L26.999 48.8003ZM26.0925 45.2041C26.3799 45.2041 26.6201 45.3031 26.8133 45.5013C27.0065 45.6995 27.1032 45.9372 27.1032 46.2147C27.1032 46.5021 27.0065 46.7447 26.8133 46.9429C26.6201 47.141 26.3799 47.2402 26.0925 47.2402C25.8053 47.2402 25.5625 47.1411 25.3644 46.9429C25.1662 46.7449 25.0672 46.5021 25.0672 46.2147C25.0672 45.9373 25.1662 45.6995 25.3644 45.5013C25.5625 45.3033 25.8053 45.2041 26.0925 45.2041ZM32.4231 52.8869C32.0764 52.8869 31.7667 52.8374 31.4943 52.7383C31.2219 52.6393 30.9619 52.4758 30.7142 52.2479C30.7341 52.7532 30.7638 53.1445 30.8034 53.4218C30.8431 53.6992 30.9124 53.937 31.0114 54.1352C31.1699 54.472 31.4177 54.7321 31.7545 54.9153C32.0914 55.0987 32.4876 55.1903 32.9434 55.1903C34.3402 55.1903 35.5042 54.4869 36.4355 53.0801C36.5147 53.1693 36.5767 53.2287 36.6213 53.2585C36.6659 53.2882 36.7426 53.3179 36.8517 53.3476C36.5347 53.7736 36.235 54.1229 35.9526 54.3953C35.6703 54.6677 35.3557 54.903 35.009 55.1011C34.2759 55.5172 33.4784 55.7253 32.6165 55.7253C31.4574 55.7253 30.5658 55.4158 29.9416 54.7966C29.3174 54.1774 29.0055 53.2882 29.0055 52.1291C29.0055 50.9899 29.2704 50.1204 29.8004 49.5211C30.3305 48.9217 31.1007 48.6221 32.1112 48.6221C32.9632 48.6221 33.6443 48.8202 34.1546 49.2165C34.6648 49.6128 34.9199 50.1379 34.9199 50.7918C34.9199 51.1087 34.8604 51.3937 34.7415 51.6462C34.6226 51.8989 34.4517 52.1192 34.2288 52.3076C34.0059 52.4958 33.7408 52.6394 33.4338 52.7384C33.1267 52.8375 32.7899 52.8871 32.4233 52.8871L32.4231 52.8869ZM31.9921 52.2627C32.3785 52.2627 32.6806 52.1314 32.8985 51.8689C33.1165 51.6064 33.2354 51.2274 33.2552 50.7321V50.6281C33.2552 50.1525 33.1413 49.7785 32.9134 49.5061C32.6856 49.2336 32.3785 49.0974 31.9921 49.0974C31.5761 49.0974 31.2614 49.251 31.0485 49.558C30.8355 49.8651 30.7289 50.316 30.7289 50.9103C30.7289 51.356 30.8379 51.693 31.0559 51.9208C31.2738 52.1486 31.5859 52.2626 31.9921 52.2626V52.2627ZM38.8576 45.8876V48.8003H39.9721C39.9424 48.9192 39.9276 49.0084 39.9276 49.0678C39.9276 49.1273 39.9424 49.2164 39.9721 49.3353H38.8576V53.3774C38.8576 53.9619 38.9444 54.3879 39.1177 54.6554C39.2911 54.9229 39.566 55.0566 39.9424 55.0566C40.6954 55.0566 41.3789 54.4374 41.9931 53.1992C42.0724 53.2783 42.1369 53.3255 42.1863 53.3403C42.2359 53.3552 42.3151 53.3676 42.4241 53.3775C42.226 53.7836 42.018 54.1329 41.7999 54.4251C41.582 54.7174 41.3492 54.9576 41.1015 55.1459C40.8539 55.3341 40.5839 55.4703 40.2917 55.5546C39.9994 55.6388 39.6799 55.681 39.3331 55.681C38.5901 55.681 38.0304 55.463 37.6538 55.027C37.5052 54.8487 37.3987 54.6481 37.3343 54.4251C37.27 54.2022 37.2377 53.9075 37.2377 53.541V49.3356H36.1826C36.2124 49.2167 36.2272 49.1275 36.2272 49.0681C36.2272 49.0086 36.2124 48.9194 36.1826 48.8005H37.2377V46.9282L38.8575 45.888L38.8576 45.8876ZM43.925 48.7854V49.469C44.1827 49.1817 44.4625 48.9736 44.7646 48.8449C45.0668 48.7161 45.4061 48.6517 45.7825 48.6517C46.4264 48.6517 46.9267 48.83 47.2834 49.1866C47.4716 49.3748 47.6004 49.578 47.6698 49.7959C47.7392 50.0138 47.7739 50.3358 47.7739 50.7618V53.7042C47.7739 54.5958 48.0711 55.0417 48.6655 55.0417C48.9726 55.0417 49.2945 54.888 49.6314 54.5811C49.9682 54.274 50.2803 53.8528 50.5675 53.3179C50.6467 53.3972 50.7087 53.4517 50.7533 53.4814C50.7979 53.5111 50.8746 53.5359 50.9837 53.5557C50.5577 54.2988 50.1217 54.8386 49.6759 55.1755C49.2301 55.5124 48.7249 55.6808 48.1602 55.6808C46.8623 55.6808 46.2135 55.0072 46.2135 53.6597V50.5836C46.2135 49.7117 45.9064 49.2759 45.2922 49.2759C44.8761 49.2759 44.5492 49.4269 44.3114 49.7292C44.0736 50.0313 43.9548 50.44 43.9548 50.9551V55.547H42.4092V50.3161C42.4092 49.9198 42.3498 49.6474 42.2309 49.4988C42.112 49.3502 41.9039 49.2759 41.6067 49.2759H40.9678C40.9975 49.157 41.0124 49.0728 41.0124 49.0232C41.0124 48.9736 40.9975 48.8945 40.9678 48.7854H43.925ZM54.0301 48.7557H55.6498V53.6448C55.6498 54.5562 55.9717 55.0119 56.6158 55.0119C56.903 55.0119 57.2077 54.8732 57.5297 54.5959C57.8516 54.3185 58.1365 53.947 58.3842 53.4814C58.4535 53.5606 58.5081 53.6102 58.5477 53.63C58.5873 53.6499 58.6566 53.6697 58.7558 53.6895C58.0424 55.017 57.141 55.6807 56.0512 55.6807C55.6748 55.6807 55.3404 55.6088 55.0481 55.4652C54.7559 55.3216 54.4859 55.1011 54.2383 54.8039C53.7627 55.3686 53.2079 55.651 52.5739 55.651C52.1875 55.651 51.8283 55.5618 51.4965 55.3835C51.1647 55.2051 50.8799 54.955 50.6421 54.6329C50.4043 54.311 50.2161 53.932 50.0774 53.4961C49.9387 53.0603 49.8694 52.5897 49.8694 52.0844C49.8694 51.5692 49.9363 51.1011 50.07 50.6801C50.2038 50.2591 50.392 49.895 50.6346 49.5878C50.8774 49.2807 51.1697 49.043 51.5114 48.8745C51.8532 48.7061 52.2272 48.6218 52.6333 48.6218C53.1485 48.6218 53.6141 48.815 54.0302 49.2013V48.7556L54.0301 48.7557ZM52.9453 55.0119C53.2623 55.0119 53.5223 54.8732 53.7254 54.5959C53.9285 54.3185 54.0301 53.9668 54.0301 53.5408V50.7768C54.0301 50.2914 53.931 49.9099 53.7328 49.6326C53.5346 49.3552 53.2623 49.2164 52.9156 49.2164C52.4797 49.2164 52.1354 49.4616 51.8828 49.952C51.6301 50.4424 51.5038 51.1185 51.5038 51.9805C51.5038 52.9315 51.6326 53.6746 51.8902 54.2095C52.1479 54.7445 52.4996 55.0119 52.9453 55.0119ZM60.2566 48.8003V49.3502C60.5438 49.1025 60.8286 48.9242 61.111 48.8152C61.3934 48.7062 61.6931 48.6517 62.01 48.6517C62.7927 48.6517 63.3921 48.9439 63.8082 49.5284C64.1351 49.2014 64.4398 48.9736 64.7221 48.8449C65.0044 48.7161 65.3338 48.6517 65.7103 48.6517C66.0372 48.6517 66.3393 48.7037 66.6167 48.8077C66.8941 48.9118 67.1269 49.0579 67.3151 49.2462C67.4043 49.3353 67.4786 49.4269 67.538 49.5211C67.5975 49.6151 67.642 49.7192 67.6718 49.8332C67.7015 49.9471 67.7238 50.0784 67.7386 50.227C67.7535 50.3756 67.7609 50.5539 67.7609 50.7619V53.4814C67.7609 54.4324 68.0978 54.908 68.7714 54.908C69.1181 54.908 69.4549 54.7668 69.7819 54.4846C70.1087 54.2022 70.3912 53.8085 70.6289 53.3032C70.7082 53.3924 70.7725 53.4518 70.8221 53.4815C70.8717 53.5112 70.9509 53.541 71.0599 53.5707C70.7528 54.2245 70.3317 54.7471 69.7968 55.1385C69.2617 55.5299 68.6971 55.7255 68.1026 55.7255C67.7757 55.7255 67.4686 55.6637 67.1813 55.5398C66.8941 55.4159 66.6662 55.2451 66.4978 55.027C66.4185 54.928 66.3566 54.8338 66.312 54.7447C66.2675 54.6555 66.2327 54.549 66.208 54.4251C66.1832 54.3012 66.1659 54.1502 66.156 53.972C66.1461 53.7936 66.1411 53.5707 66.1411 53.3033V50.8365C66.1411 50.3312 66.0644 49.9596 65.9108 49.722C65.7572 49.4842 65.5169 49.3653 65.19 49.3653C64.8136 49.3653 64.5213 49.5165 64.3132 49.8186C64.1052 50.1207 64.0011 50.5541 64.0011 51.1189V55.5472H62.3813V50.7622C62.3813 49.8706 62.0694 49.4247 61.4452 49.4247C61.0686 49.4247 60.7765 49.5709 60.5684 49.863C60.3604 50.1553 60.2563 50.5738 60.2563 51.1187V55.5471H58.6365V50.3311C58.6365 49.9447 58.5795 49.6747 58.4656 49.5212C58.3517 49.3676 58.1461 49.2909 57.8488 49.2909H57.2991C57.3288 49.1918 57.3437 49.1125 57.3437 49.0531C57.3437 49.0035 57.3288 48.9193 57.2991 48.8004H60.2563L60.2566 48.8003Z" fill="#373435"/>
</svg>
